<mxfile host="Electron" modified="2023-11-02T08:25:05.532Z" agent="Mozilla/5.0 (Windows NT 10.0; Win64; x64) AppleWebKit/537.36 (KHTML, like Gecko) draw.io/22.0.2 Chrome/114.0.5735.289 Electron/25.8.4 Safari/537.36" etag="oGJ9ZJ-ghNmY1x5k-TAm" version="22.0.2" type="device">
  <diagram name="Page-1" id="LPZdNXcBMvqhJ4uBcc8h">
    <mxGraphModel dx="574" dy="338" grid="1" gridSize="10" guides="1" tooltips="1" connect="1" arrows="1" fold="1" page="1" pageScale="1" pageWidth="827" pageHeight="1169" math="0" shadow="0">
      <root>
        <mxCell id="0" />
        <mxCell id="1" parent="0" />
        <mxCell id="uSJnrhwTqycT6zivwBpy-6" style="edgeStyle=orthogonalEdgeStyle;rounded=0;orthogonalLoop=1;jettySize=auto;html=1;exitX=0;exitY=0.5;exitDx=0;exitDy=0;shape=link;" edge="1" parent="1" source="uSJnrhwTqycT6zivwBpy-2" target="uSJnrhwTqycT6zivwBpy-4">
          <mxGeometry relative="1" as="geometry" />
        </mxCell>
        <mxCell id="uSJnrhwTqycT6zivwBpy-2" value="PLC" style="whiteSpace=wrap;html=1;aspect=fixed;" vertex="1" parent="1">
          <mxGeometry x="360" y="400" width="50" height="50" as="geometry" />
        </mxCell>
        <mxCell id="uSJnrhwTqycT6zivwBpy-5" style="edgeStyle=orthogonalEdgeStyle;rounded=0;orthogonalLoop=1;jettySize=auto;html=1;exitX=0;exitY=0.5;exitDx=0;exitDy=0;shape=link;" edge="1" parent="1" source="uSJnrhwTqycT6zivwBpy-3" target="uSJnrhwTqycT6zivwBpy-2">
          <mxGeometry relative="1" as="geometry" />
        </mxCell>
        <mxCell id="uSJnrhwTqycT6zivwBpy-3" value="PC" style="whiteSpace=wrap;html=1;aspect=fixed;" vertex="1" parent="1">
          <mxGeometry x="460" y="400" width="50" height="50" as="geometry" />
        </mxCell>
        <mxCell id="uSJnrhwTqycT6zivwBpy-4" value="Robot" style="ellipse;whiteSpace=wrap;html=1;aspect=fixed;" vertex="1" parent="1">
          <mxGeometry x="260" y="400" width="50" height="50" as="geometry" />
        </mxCell>
        <mxCell id="uSJnrhwTqycT6zivwBpy-12" style="edgeStyle=orthogonalEdgeStyle;rounded=0;orthogonalLoop=1;jettySize=auto;html=1;exitX=0.5;exitY=1;exitDx=0;exitDy=0;entryX=0;entryY=0;entryDx=0;entryDy=0;" edge="1" parent="1" source="uSJnrhwTqycT6zivwBpy-10" target="uSJnrhwTqycT6zivwBpy-2">
          <mxGeometry relative="1" as="geometry" />
        </mxCell>
        <mxCell id="uSJnrhwTqycT6zivwBpy-10" value="" style="shape=sortShape;perimeter=rhombusPerimeter;whiteSpace=wrap;html=1;" vertex="1" parent="1">
          <mxGeometry x="350" y="300" width="20" height="20" as="geometry" />
        </mxCell>
        <mxCell id="uSJnrhwTqycT6zivwBpy-13" value="" style="triangle;whiteSpace=wrap;html=1;rotation=-90;" vertex="1" parent="1">
          <mxGeometry x="380" y="300" width="10" height="15" as="geometry" />
        </mxCell>
        <mxCell id="uSJnrhwTqycT6zivwBpy-16" style="edgeStyle=orthogonalEdgeStyle;rounded=0;orthogonalLoop=1;jettySize=auto;html=1;exitX=0;exitY=0.5;exitDx=0;exitDy=0;entryX=1;entryY=0;entryDx=0;entryDy=0;" edge="1" parent="1" source="uSJnrhwTqycT6zivwBpy-14" target="uSJnrhwTqycT6zivwBpy-2">
          <mxGeometry relative="1" as="geometry" />
        </mxCell>
        <mxCell id="uSJnrhwTqycT6zivwBpy-14" value="" style="triangle;whiteSpace=wrap;html=1;rotation=-90;" vertex="1" parent="1">
          <mxGeometry x="405" y="300" width="10" height="15" as="geometry" />
        </mxCell>
        <mxCell id="uSJnrhwTqycT6zivwBpy-15" style="edgeStyle=orthogonalEdgeStyle;rounded=0;orthogonalLoop=1;jettySize=auto;html=1;exitX=0;exitY=0.5;exitDx=0;exitDy=0;entryX=0.5;entryY=0;entryDx=0;entryDy=0;" edge="1" parent="1" source="uSJnrhwTqycT6zivwBpy-13" target="uSJnrhwTqycT6zivwBpy-2">
          <mxGeometry relative="1" as="geometry" />
        </mxCell>
        <mxCell id="uSJnrhwTqycT6zivwBpy-19" value="&lt;font style=&quot;font-size: 6px;&quot;&gt;Prox.&lt;br&gt;Sensor&lt;/font&gt;" style="text;html=1;align=center;verticalAlign=middle;resizable=0;points=[];autosize=1;strokeColor=none;fillColor=none;" vertex="1" parent="1">
          <mxGeometry x="340" y="260" width="40" height="40" as="geometry" />
        </mxCell>
        <mxCell id="uSJnrhwTqycT6zivwBpy-20" value="&lt;font style=&quot;font-size: 6px;&quot;&gt;On/ Off&lt;br&gt;Butttons&lt;/font&gt;" style="text;html=1;align=center;verticalAlign=middle;resizable=0;points=[];autosize=1;strokeColor=none;fillColor=none;" vertex="1" parent="1">
          <mxGeometry x="370" y="260" width="50" height="40" as="geometry" />
        </mxCell>
      </root>
    </mxGraphModel>
  </diagram>
</mxfile>
